<svg xmlns="http://www.w3.org/2000/svg" width="37" height="36" viewBox="0 0 37 36">
  <g fill="#6B7684" fill-rule="evenodd" opacity=".7">
    <path d="M36 18c0 9.941-8.059 18-18 18S0 27.941 0 18 8.059 0 18 0s18 8.059 18 18"/>
  </g>
  <g transform="translate(8.5, 8) scale(0.8)" fill="#F1F1F2" fill-rule="evenodd" opacity=".7">
    <path d="M12 21.326a5.055 5.055 0 013.575-1.48H22a1 1 0 001-1V4.674a1 1 0 00-1-1h-6.425A5.056 5.056 0 0012 5.155"/>
    <path fill-opacity=".6" d="M12 21.326a5.055 5.055 0 00-3.575-1.48H2a1 1 0 01-1-1V4.674a1 1 0 011-1h6.425c1.341 0 2.627.533 3.575 1.481"/>
  </g>
</svg>
